<?xml version="1.0" encoding="UTF-8"?>
<!DOCTYPE svg PUBLIC "-//W3C//DTD SVG 1.1//EN" "http://www.w3.org/Graphics/SVG/1.1/DTD/svg11.dtd">
<svg xmlns="http://www.w3.org/2000/svg" version="1.1" width="512px" height="512px" style="shape-rendering:geometricPrecision; text-rendering:geometricPrecision; image-rendering:optimizeQuality; fill-rule:evenodd; clip-rule:evenodd" xmlns:xlink="http://www.w3.org/1999/xlink">
<g><path style="opacity:0.999" fill="#e8c601" d="M 232.5,-0.5 C 238.833,-0.5 245.167,-0.5 251.5,-0.5C 162.614,11.1766 95.4475,55.5099 50,132.5C 13.9093,201.262 8.90927,272.262 35,345.5C 39.1287,354.751 42.962,364.085 46.5,373.5C 42.1667,377.167 38.1667,381.167 34.5,385.5C 15.0186,352.389 3.35198,316.723 -0.5,278.5C -0.5,263.167 -0.5,247.833 -0.5,232.5C 10.3875,142.857 54.7208,75.3573 132.5,30C 163.971,13.3053 197.304,3.1386 232.5,-0.5 Z"/></g>
<g><path style="opacity:1" fill="#fedd50" d="M 251.5,-0.5 C 260.5,-0.5 269.5,-0.5 278.5,-0.5C 287.894,0.794609 297.228,2.46128 306.5,4.5C 309.219,5.91301 312.219,6.57968 315.5,6.5C 334.359,10.4528 352.359,16.7861 369.5,25.5C 369.369,26.3764 369.702,27.0431 370.5,27.5C 372.413,28.373 374.247,29.373 376,30.5C 376.399,30.2716 376.565,29.9382 376.5,29.5C 379.004,30.5839 381.337,31.9172 383.5,33.5C 383.611,34.1174 383.944,34.6174 384.5,35C 370.631,48.7015 356.965,62.5348 343.5,76.5C 312.862,61.9053 280.528,55.2386 246.5,56.5C 164.91,63.3547 106.744,103.688 72,177.5C 50.0882,233.498 51.5882,288.832 76.5,343.5C 66.1396,353.194 56.1396,363.194 46.5,373.5C 42.962,364.085 39.1287,354.751 35,345.5C 8.90927,272.262 13.9093,201.262 50,132.5C 95.4475,55.5099 162.614,11.1766 251.5,-0.5 Z"/></g>
<g><path style="opacity:0.475" fill="#c996af" d="M 306.5,4.5 C 309.781,4.42032 312.781,5.08699 315.5,6.5C 312.219,6.57968 309.219,5.91301 306.5,4.5 Z"/></g>
<g><path style="opacity:0.98" fill="#e77aa5" d="M 369.5,25.5 C 372.032,26.5957 374.365,27.9291 376.5,29.5C 376.565,29.9382 376.399,30.2716 376,30.5C 374.247,29.373 372.413,28.373 370.5,27.5C 369.702,27.0431 369.369,26.3764 369.5,25.5 Z"/></g>
<g><path style="opacity:1" fill="#fde893" d="M 383.5,33.5 C 400.266,42.8843 415.6,54.2177 429.5,67.5C 428.761,67.369 428.094,67.5357 427.5,68C 414.632,81.0353 401.632,93.8686 388.5,106.5C 374.565,94.8977 359.565,84.8977 343.5,76.5C 356.965,62.5348 370.631,48.7015 384.5,35C 383.944,34.6174 383.611,34.1174 383.5,33.5 Z"/></g>
<g><path style="opacity:1" fill="#febc00" d="M 246.5,56.5 C 301.223,61.6947 346.89,84.6947 383.5,125.5C 383.461,126.583 383.127,127.583 382.5,128.5C 369.119,141.215 356.119,154.215 343.5,167.5C 336.239,155.738 326.739,146.071 315,138.5C 314.667,128.5 314.333,118.5 314,108.5C 309.169,94.8334 299.669,89.6668 285.5,93C 283.308,93.926 281.308,95.0927 279.5,96.5C 268.007,88.6317 257.84,90.2984 249,101.5C 248.243,103.315 247.41,104.981 246.5,106.5C 241.851,95.5034 233.517,90.67 221.5,92C 218.194,92.9862 215.194,94.4862 212.5,96.5C 199.862,88.108 189.362,90.4413 181,103.5C 179.624,112.098 179.124,120.765 179.5,129.5C 178.167,129.5 176.833,129.5 175.5,129.5C 166.827,129.334 158.16,129.5 149.5,130C 137.702,134.465 132.536,142.965 134,155.5C 139.107,167.642 148.274,172.975 161.5,171.5C 161.5,227.5 161.5,283.5 161.5,339.5C 146.242,338.115 136.908,344.782 133.5,359.5C 133.757,364.201 135.09,368.534 137.5,372.5C 130.088,380.514 122.755,388.514 115.5,396.5C 112.14,393.806 109.14,390.806 106.5,387.5C 94.5124,374.181 84.5124,359.514 76.5,343.5C 51.5882,288.832 50.0882,233.498 72,177.5C 106.744,103.688 164.91,63.3547 246.5,56.5 Z"/></g>
<g><path style="opacity:1" fill="#f68f00" d="M 246.5,56.5 C 280.528,55.2386 312.862,61.9053 343.5,76.5C 359.565,84.8977 374.565,94.8977 388.5,106.5C 398.602,116.262 407.935,126.595 416.5,137.5C 431.176,158.525 441.843,181.525 448.5,206.5C 465.077,283.593 445.077,349.426 388.5,404C 348.481,438.733 301.815,455.566 248.5,454.5C 334.657,443.335 392.824,397.001 423,315.5C 442.643,245.029 429.476,181.695 383.5,125.5C 346.89,84.6947 301.223,61.6947 246.5,56.5 Z"/></g>
<g><path style="opacity:1" fill="#fedd51" d="M 429.5,67.5 C 437.535,74.5341 444.868,82.2007 451.5,90.5C 451.738,92.4044 452.738,93.7377 454.5,94.5C 455.167,94.5 455.5,94.8333 455.5,95.5C 455.649,96.552 455.483,97.552 455,98.5C 441.965,111.368 429.131,124.368 416.5,137.5C 407.935,126.595 398.602,116.262 388.5,106.5C 401.632,93.8686 414.632,81.0353 427.5,68C 428.094,67.5357 428.761,67.369 429.5,67.5 Z"/></g>
<g><path style="opacity:1" fill="#f68e01" d="M 212.5,96.5 C 209.597,99.2928 207.431,102.626 206,106.5C 205.5,114.159 205.334,121.826 205.5,129.5C 196.833,129.5 188.167,129.5 179.5,129.5C 179.124,120.765 179.624,112.098 181,103.5C 189.362,90.4413 199.862,88.108 212.5,96.5 Z"/></g>
<g><path style="opacity:1" fill="#fee993" d="M 246.5,106.5 C 247.398,114.124 247.731,121.791 247.5,129.5C 255.833,129.5 264.167,129.5 272.5,129.5C 272.334,121.826 272.5,114.159 273,106.5C 274.431,102.626 276.597,99.2928 279.5,96.5C 281.308,95.0927 283.308,93.926 285.5,93C 299.669,89.6668 309.169,94.8334 314,108.5C 314.333,118.5 314.667,128.5 315,138.5C 326.739,146.071 336.239,155.738 343.5,167.5C 352.211,187.925 352.711,208.591 345,229.5C 342.898,233.929 340.398,238.095 337.5,242C 370.328,266.834 379.494,298.668 365,337.5C 354.544,359.132 337.711,372.798 314.5,378.5C 314.666,386.174 314.5,393.841 314,401.5C 309.697,415.903 300.197,421.403 285.5,418C 283.308,417.074 281.308,415.907 279.5,414.5C 276.041,411.252 273.875,407.252 273,402.5C 272.5,395.508 272.334,388.508 272.5,381.5C 264.167,381.5 255.833,381.5 247.5,381.5C 247.5,387.833 247.5,394.167 247.5,400.5C 244.049,413.761 235.382,419.928 221.5,419C 218.194,418.014 215.194,416.514 212.5,414.5C 209.041,411.252 206.875,407.252 206,402.5C 205.5,395.508 205.334,388.508 205.5,381.5C 196.833,381.5 188.167,381.5 179.5,381.5C 177.708,381.634 176.042,381.301 174.5,380.5C 162.567,375.301 158.067,366.301 161,353.5C 166.713,342.392 175.879,337.726 188.5,339.5C 188.5,283.5 188.5,227.5 188.5,171.5C 169.914,173.167 160.414,164.833 160,146.5C 162.283,138.056 167.45,132.389 175.5,129.5C 176.833,129.5 178.167,129.5 179.5,129.5C 188.167,129.5 196.833,129.5 205.5,129.5C 205.334,121.826 205.5,114.159 206,106.5C 207.431,102.626 209.597,99.2928 212.5,96.5C 215.194,94.4862 218.194,92.9862 221.5,92C 233.517,90.67 241.851,95.5034 246.5,106.5 Z"/></g>
<g><path style="opacity:1" fill="#f68e00" d="M 279.5,96.5 C 276.597,99.2928 274.431,102.626 273,106.5C 272.5,114.159 272.334,121.826 272.5,129.5C 264.167,129.5 255.833,129.5 247.5,129.5C 247.731,121.791 247.398,114.124 246.5,106.5C 247.41,104.981 248.243,103.315 249,101.5C 257.84,90.2984 268.007,88.6317 279.5,96.5 Z"/></g>
<g><path style="opacity:0.941" fill="#b68bc2" d="M 451.5,90.5 C 453.262,91.2623 454.262,92.5956 454.5,94.5C 452.738,93.7377 451.738,92.4044 451.5,90.5 Z"/></g>
<g><path style="opacity:1" fill="#fee893" d="M 455.5,95.5 C 472.587,115.657 485.587,138.323 494.5,163.5C 493.883,163.389 493.383,163.056 493,162.5C 478.299,177.369 463.465,192.035 448.5,206.5C 441.843,181.525 431.176,158.525 416.5,137.5C 429.131,124.368 441.965,111.368 455,98.5C 455.483,97.552 455.649,96.552 455.5,95.5 Z"/></g>
<g><path style="opacity:1" fill="#faa300" d="M 383.5,125.5 C 429.476,181.695 442.643,245.029 423,315.5C 392.824,397.001 334.657,443.335 248.5,454.5C 234.276,453.972 220.276,451.972 206.5,448.5C 181.722,442.108 159.055,431.442 138.5,416.5C 130.242,410.58 122.575,403.913 115.5,396.5C 122.755,388.514 130.088,380.514 137.5,372.5C 140.55,376.538 144.55,379.371 149.5,381C 158.01,381.823 166.344,381.657 174.5,380.5C 176.042,381.301 177.708,381.634 179.5,381.5C 179.334,388.841 179.5,396.174 180,403.5C 184.191,415.682 192.691,420.848 205.5,419C 208.239,417.974 210.572,416.474 212.5,414.5C 215.194,416.514 218.194,418.014 221.5,419C 235.382,419.928 244.049,413.761 247.5,400.5C 249.651,414.799 257.984,420.966 272.5,419C 275.239,417.974 277.572,416.474 279.5,414.5C 281.308,415.907 283.308,417.074 285.5,418C 300.197,421.403 309.697,415.903 314,401.5C 314.5,393.841 314.666,386.174 314.5,378.5C 337.711,372.798 354.544,359.132 365,337.5C 379.494,298.668 370.328,266.834 337.5,242C 340.398,238.095 342.898,233.929 345,229.5C 352.711,208.591 352.211,187.925 343.5,167.5C 356.119,154.215 369.119,141.215 382.5,128.5C 383.127,127.583 383.461,126.583 383.5,125.5 Z"/></g>
<g><path style="opacity:1" fill="#f68f03" d="M 175.5,129.5 C 167.45,132.389 162.283,138.056 160,146.5C 160.414,164.833 169.914,173.167 188.5,171.5C 188.5,227.5 188.5,283.5 188.5,339.5C 175.879,337.726 166.713,342.392 161,353.5C 158.067,366.301 162.567,375.301 174.5,380.5C 166.344,381.657 158.01,381.823 149.5,381C 144.55,379.371 140.55,376.538 137.5,372.5C 135.09,368.534 133.757,364.201 133.5,359.5C 136.908,344.782 146.242,338.115 161.5,339.5C 161.5,283.5 161.5,227.5 161.5,171.5C 148.274,172.975 139.107,167.642 134,155.5C 132.536,142.965 137.702,134.465 149.5,130C 158.16,129.5 166.827,129.334 175.5,129.5 Z"/></g>
<g><path style="opacity:1" fill="#fddc51" d="M 494.5,163.5 C 500.056,177.038 504.389,191.038 507.5,205.5C 506.133,208.012 506.466,210.345 508.5,212.5C 509.349,219.321 510.349,225.988 511.5,232.5C 511.5,247.833 511.5,263.167 511.5,278.5C 510.323,287.914 508.656,297.247 506.5,306.5C 505.087,309.219 504.42,312.219 504.5,315.5C 500.409,335.108 493.742,353.774 484.5,371.5C 482.616,372.382 481.283,373.882 480.5,376C 480.728,376.399 481.062,376.565 481.5,376.5C 478.619,383.033 474.953,389.033 470.5,394.5C 469.094,394.973 468.427,395.973 468.5,397.5C 457.103,415.89 443.103,432.224 426.5,446.5C 425.761,446.369 425.094,446.536 424.5,447C 423.262,447.69 423.262,448.19 424.5,448.5C 423.71,449.401 422.71,450.068 421.5,450.5C 419.251,451.08 417.585,452.413 416.5,454.5C 403.865,465.787 389.865,475.12 374.5,482.5C 369.397,483.875 364.397,486.208 359.5,489.5C 333.721,501.361 306.721,508.695 278.5,511.5C 271.5,511.5 264.5,511.5 257.5,511.5C 226.352,508.666 196.352,500.999 167.5,488.5C 180.5,475.167 193.5,461.833 206.5,448.5C 220.276,451.972 234.276,453.972 248.5,454.5C 301.815,455.566 348.481,438.733 388.5,404C 445.077,349.426 465.077,283.593 448.5,206.5C 463.465,192.035 478.299,177.369 493,162.5C 493.383,163.056 493.883,163.389 494.5,163.5 Z"/></g>
<g><path style="opacity:1" fill="#febd01" d="M 260.5,171.5 C 282.266,180.708 288.1,196.041 278,217.5C 275.5,220 273,222.5 270.5,225C 267.107,226.62 263.774,228.12 260.5,229.5C 250.167,229.5 239.833,229.5 229.5,229.5C 229.5,210.167 229.5,190.833 229.5,171.5C 239.833,171.5 250.167,171.5 260.5,171.5 Z"/></g>
<g><path style="opacity:1" fill="#f68e01" d="M 260.5,171.5 C 269.173,171.334 277.84,171.5 286.5,172C 307.222,179.612 313.722,193.779 306,214.5C 301.521,221.97 295.021,226.804 286.5,229C 277.84,229.5 269.173,229.666 260.5,229.5C 263.774,228.12 267.107,226.62 270.5,225C 273,222.5 275.5,220 278,217.5C 288.1,196.041 282.266,180.708 260.5,171.5 Z"/></g>
<g><path style="opacity:0.996" fill="#c2a3a6" d="M 507.5,205.5 C 507.674,207.861 508.007,210.194 508.5,212.5C 506.466,210.345 506.133,208.012 507.5,205.5 Z"/></g>
<g><path style="opacity:1" fill="#faa301" d="M 300.5,272.5 C 293.159,272.334 285.826,272.5 278.5,273C 298.321,279.793 306.488,293.627 303,314.5C 298.557,327.111 290.057,335.445 277.5,339.5C 261.5,339.5 245.5,339.5 229.5,339.5C 229.5,316.833 229.5,294.167 229.5,271.5C 253.339,271.169 277.006,271.502 300.5,272.5 Z"/></g>
<g><path style="opacity:1" fill="#f68e01" d="M 300.5,272.5 C 316.181,275.011 326.014,284.011 330,299.5C 331.517,319.638 322.684,332.804 303.5,339C 294.84,339.5 286.173,339.666 277.5,339.5C 290.057,335.445 298.557,327.111 303,314.5C 306.488,293.627 298.321,279.793 278.5,273C 285.826,272.5 293.159,272.334 300.5,272.5 Z"/></g>
<g><path style="opacity:0.749" fill="#966cba" d="M 506.5,306.5 C 506.58,309.781 505.913,312.781 504.5,315.5C 504.42,312.219 505.087,309.219 506.5,306.5 Z"/></g>
<g><path style="opacity:1" fill="#fee893" d="M 76.5,343.5 C 84.5124,359.514 94.5124,374.181 106.5,387.5C 106.631,388.239 106.464,388.906 106,389.5C 95.9645,399.368 86.1312,409.368 76.5,419.5C 73.7029,421.795 71.0362,424.295 68.5,427C 67.552,427.483 66.552,427.649 65.5,427.5C 60.1079,422.44 55.4413,416.774 51.5,410.5C 51.573,408.973 50.9063,407.973 49.5,407.5C 43.7511,400.738 38.7511,393.405 34.5,385.5C 38.1667,381.167 42.1667,377.167 46.5,373.5C 56.1396,363.194 66.1396,353.194 76.5,343.5 Z"/></g>
<g><path style="opacity:0.086" fill="#d74cc7" d="M 484.5,371.5 C 483.737,373.368 482.737,375.035 481.5,376.5C 481.062,376.565 480.728,376.399 480.5,376C 481.283,373.882 482.616,372.382 484.5,371.5 Z"/></g>
<g><path style="opacity:1" fill="#f68e01" d="M 179.5,381.5 C 188.167,381.5 196.833,381.5 205.5,381.5C 205.334,388.508 205.5,395.508 206,402.5C 206.875,407.252 209.041,411.252 212.5,414.5C 210.572,416.474 208.239,417.974 205.5,419C 192.691,420.848 184.191,415.682 180,403.5C 179.5,396.174 179.334,388.841 179.5,381.5 Z"/></g>
<g><path style="opacity:1" fill="#f68e01" d="M 279.5,414.5 C 277.572,416.474 275.239,417.974 272.5,419C 257.984,420.966 249.651,414.799 247.5,400.5C 247.5,394.167 247.5,387.833 247.5,381.5C 255.833,381.5 264.167,381.5 272.5,381.5C 272.334,388.508 272.5,395.508 273,402.5C 273.875,407.252 276.041,411.252 279.5,414.5 Z"/></g>
<g><path style="opacity:1" fill="#fedd50" d="M 106.5,387.5 C 109.14,390.806 112.14,393.806 115.5,396.5C 122.575,403.913 130.242,410.58 138.5,416.5C 137.761,416.369 137.094,416.536 136.5,417C 126.298,427.369 115.965,437.535 105.5,447.5C 95.7595,438.09 86.0929,428.757 76.5,419.5C 86.1312,409.368 95.9645,399.368 106,389.5C 106.464,388.906 106.631,388.239 106.5,387.5 Z"/></g>
<g><path style="opacity:0.149" fill="#cc7cd4" d="M 470.5,394.5 C 470.573,396.027 469.906,397.027 468.5,397.5C 468.427,395.973 469.094,394.973 470.5,394.5 Z"/></g>
<g><path style="opacity:0.086" fill="#7c19c8" d="M 49.5,407.5 C 50.9063,407.973 51.573,408.973 51.5,410.5C 50.0937,410.027 49.427,409.027 49.5,407.5 Z"/></g>
<g><path style="opacity:1" fill="#fde893" d="M 138.5,416.5 C 159.055,431.442 181.722,442.108 206.5,448.5C 193.5,461.833 180.5,475.167 167.5,488.5C 165.086,489.911 163.419,491.911 162.5,494.5C 137.256,485.224 114.589,471.89 94.5,454.5C 95.8474,455.028 97.1807,455.195 98.5,455C 101.039,452.63 103.372,450.13 105.5,447.5C 115.965,437.535 126.298,427.369 136.5,417C 137.094,416.536 137.761,416.369 138.5,416.5 Z"/></g>
<g><path style="opacity:1" fill="#eac703" d="M 76.5,419.5 C 86.0929,428.757 95.7595,438.09 105.5,447.5C 103.372,450.13 101.039,452.63 98.5,455C 97.1807,455.195 95.8474,455.028 94.5,454.5C 83.9245,446.595 74.2578,437.595 65.5,427.5C 66.552,427.649 67.552,427.483 68.5,427C 71.0362,424.295 73.7029,421.795 76.5,419.5 Z"/></g>
<g><path style="opacity:0.055" fill="#c264b9" d="M 426.5,446.5 C 426.167,447.5 425.5,448.167 424.5,448.5C 423.262,448.19 423.262,447.69 424.5,447C 425.094,446.536 425.761,446.369 426.5,446.5 Z"/></g>
<g><path style="opacity:0.294" fill="#b66f77" d="M 421.5,450.5 C 420.415,452.587 418.749,453.92 416.5,454.5C 417.585,452.413 419.251,451.08 421.5,450.5 Z"/></g>
<g><path style="opacity:0.09" fill="#d6937f" d="M 374.5,482.5 C 369.919,485.622 364.919,487.956 359.5,489.5C 364.397,486.208 369.397,483.875 374.5,482.5 Z"/></g>
<g><path style="opacity:0.999" fill="#debd05" d="M 167.5,488.5 C 196.352,500.999 226.352,508.666 257.5,511.5C 249.167,511.5 240.833,511.5 232.5,511.5C 208.496,509 185.163,503.333 162.5,494.5C 163.419,491.911 165.086,489.911 167.5,488.5 Z"/></g>
</svg>
